<mxfile host="app.diagrams.net" agent="Mozilla/5.0 (Macintosh; Intel Mac OS X 10_15_7) AppleWebKit/537.36 (KHTML, like Gecko) Chrome/127.0.0.0 Safari/537.36" version="24.8.2">
  <diagram name="PÃ¡gina-1" id="bLhQbgidUB0lM2vuocT3">
    <mxGraphModel dx="2074" dy="761" grid="1" gridSize="10" guides="1" tooltips="1" connect="1" arrows="1" fold="1" page="1" pageScale="1" pageWidth="1169" pageHeight="827" math="0" shadow="0">
      <root>
        <mxCell id="0" />
        <mxCell id="1" parent="0" />
        <mxCell id="mVGBNtJ_EDpIW_7o-upL-54" value="" style="rounded=0;whiteSpace=wrap;html=1;fillColor=#d5e8d4;strokeColor=#82b366;" parent="1" vertex="1">
          <mxGeometry x="860" y="446" width="250" height="110" as="geometry" />
        </mxCell>
        <mxCell id="mVGBNtJ_EDpIW_7o-upL-53" value="" style="rounded=0;whiteSpace=wrap;html=1;fillColor=#d5e8d4;strokeColor=#82b366;" parent="1" vertex="1">
          <mxGeometry x="860" y="333" width="250" height="110" as="geometry" />
        </mxCell>
        <mxCell id="mVGBNtJ_EDpIW_7o-upL-59" style="edgeStyle=orthogonalEdgeStyle;rounded=0;orthogonalLoop=1;jettySize=auto;html=1;entryX=1;entryY=0.5;entryDx=0;entryDy=0;exitX=0.5;exitY=0;exitDx=0;exitDy=0;startArrow=classic;startFill=1;endArrow=none;endFill=0;" parent="1" source="mVGBNtJ_EDpIW_7o-upL-52" target="mVGBNtJ_EDpIW_7o-upL-55" edge="1">
          <mxGeometry relative="1" as="geometry" />
        </mxCell>
        <mxCell id="mVGBNtJ_EDpIW_7o-upL-52" value="" style="rounded=0;whiteSpace=wrap;html=1;fillColor=#d5e8d4;strokeColor=#82b366;" parent="1" vertex="1">
          <mxGeometry x="860" y="220" width="250" height="110" as="geometry" />
        </mxCell>
        <mxCell id="mVGBNtJ_EDpIW_7o-upL-49" value="" style="rounded=0;whiteSpace=wrap;html=1;fillColor=#d5e8d4;strokeColor=#82b366;" parent="1" vertex="1">
          <mxGeometry x="400" y="220" width="430" height="340" as="geometry" />
        </mxCell>
        <mxCell id="mVGBNtJ_EDpIW_7o-upL-46" value="" style="whiteSpace=wrap;html=1;aspect=fixed;align=left;fillColor=#d5e8d4;strokeColor=#82b366;" parent="1" vertex="1">
          <mxGeometry x="250" y="308" width="120" height="120" as="geometry" />
        </mxCell>
        <mxCell id="mVGBNtJ_EDpIW_7o-upL-11" style="edgeStyle=orthogonalEdgeStyle;rounded=0;orthogonalLoop=1;jettySize=auto;html=1;startArrow=classic;startFill=1;endArrow=none;endFill=0;" parent="1" source="mVGBNtJ_EDpIW_7o-upL-1" edge="1">
          <mxGeometry relative="1" as="geometry">
            <mxPoint x="150" y="376" as="targetPoint" />
          </mxGeometry>
        </mxCell>
        <mxCell id="mVGBNtJ_EDpIW_7o-upL-1" value="importer-api" style="whiteSpace=wrap;html=1;aspect=fixed;" parent="1" vertex="1">
          <mxGeometry x="270" y="336" width="80" height="80" as="geometry" />
        </mxCell>
        <mxCell id="mVGBNtJ_EDpIW_7o-upL-8" value="" style="group" parent="1" vertex="1" connectable="0">
          <mxGeometry x="70" y="327.5" width="76" height="89" as="geometry" />
        </mxCell>
        <mxCell id="mVGBNtJ_EDpIW_7o-upL-5" value="" style="image;aspect=fixed;html=1;points=[];align=center;fontSize=12;image=img/lib/azure2/general/File.svg;" parent="mVGBNtJ_EDpIW_7o-upL-8" vertex="1">
          <mxGeometry width="56.00000000000001" height="69" as="geometry" />
        </mxCell>
        <mxCell id="mVGBNtJ_EDpIW_7o-upL-6" value="" style="image;aspect=fixed;html=1;points=[];align=center;fontSize=12;image=img/lib/azure2/general/File.svg;" parent="mVGBNtJ_EDpIW_7o-upL-8" vertex="1">
          <mxGeometry x="10" y="10" width="56.00000000000001" height="69" as="geometry" />
        </mxCell>
        <mxCell id="mVGBNtJ_EDpIW_7o-upL-7" value="" style="image;aspect=fixed;html=1;points=[];align=center;fontSize=12;image=img/lib/azure2/general/File.svg;" parent="mVGBNtJ_EDpIW_7o-upL-8" vertex="1">
          <mxGeometry x="20" y="20" width="56.00000000000001" height="69" as="geometry" />
        </mxCell>
        <mxCell id="mVGBNtJ_EDpIW_7o-upL-14" value="&lt;span style=&quot;color: rgb(0, 0, 0);&quot;&gt;data-process&lt;/span&gt;" style="sketch=0;points=[[0,0,0],[0.25,0,0],[0.5,0,0],[0.75,0,0],[1,0,0],[0,1,0],[0.25,1,0],[0.5,1,0],[0.75,1,0],[1,1,0],[0,0.25,0],[0,0.5,0],[0,0.75,0],[1,0.25,0],[1,0.5,0],[1,0.75,0]];outlineConnect=0;fontColor=#232F3E;fillColor=#E7157B;strokeColor=#ffffff;dashed=0;verticalLabelPosition=bottom;verticalAlign=top;align=center;html=1;fontSize=12;fontStyle=0;aspect=fixed;shape=mxgraph.aws4.resourceIcon;resIcon=mxgraph.aws4.sqs;" parent="1" vertex="1">
          <mxGeometry x="430" y="337" width="78" height="78" as="geometry" />
        </mxCell>
        <mxCell id="mVGBNtJ_EDpIW_7o-upL-15" style="edgeStyle=orthogonalEdgeStyle;rounded=0;orthogonalLoop=1;jettySize=auto;html=1;entryX=0;entryY=0.5;entryDx=0;entryDy=0;entryPerimeter=0;" parent="1" source="mVGBNtJ_EDpIW_7o-upL-1" target="mVGBNtJ_EDpIW_7o-upL-14" edge="1">
          <mxGeometry relative="1" as="geometry" />
        </mxCell>
        <mxCell id="mVGBNtJ_EDpIW_7o-upL-17" value="POST /upload" style="text;html=1;align=center;verticalAlign=middle;resizable=0;points=[];autosize=1;strokeColor=none;fillColor=none;" parent="1" vertex="1">
          <mxGeometry x="150" y="377.5" width="100" height="30" as="geometry" />
        </mxCell>
        <mxCell id="mVGBNtJ_EDpIW_7o-upL-18" value="&lt;span style=&quot;color: rgb(0, 0, 0);&quot;&gt;data-process-dlq&lt;/span&gt;" style="sketch=0;points=[[0,0,0],[0.25,0,0],[0.5,0,0],[0.75,0,0],[1,0,0],[0,1,0],[0.25,1,0],[0.5,1,0],[0.75,1,0],[1,1,0],[0,0.25,0],[0,0.5,0],[0,0.75,0],[1,0.25,0],[1,0.5,0],[1,0.75,0]];outlineConnect=0;fontColor=#232F3E;fillColor=#666666;strokeColor=#ffffff;dashed=0;verticalLabelPosition=bottom;verticalAlign=top;align=center;html=1;fontSize=12;fontStyle=0;aspect=fixed;shape=mxgraph.aws4.resourceIcon;resIcon=mxgraph.aws4.sqs;" parent="1" vertex="1">
          <mxGeometry x="430" y="450" width="78" height="78" as="geometry" />
        </mxCell>
        <mxCell id="mVGBNtJ_EDpIW_7o-upL-19" style="edgeStyle=orthogonalEdgeStyle;rounded=0;orthogonalLoop=1;jettySize=auto;html=1;exitX=0.25;exitY=1;exitDx=0;exitDy=0;exitPerimeter=0;entryX=0.25;entryY=0;entryDx=0;entryDy=0;entryPerimeter=0;" parent="1" source="mVGBNtJ_EDpIW_7o-upL-14" target="mVGBNtJ_EDpIW_7o-upL-18" edge="1">
          <mxGeometry relative="1" as="geometry" />
        </mxCell>
        <mxCell id="mVGBNtJ_EDpIW_7o-upL-20" style="edgeStyle=orthogonalEdgeStyle;rounded=0;orthogonalLoop=1;jettySize=auto;html=1;exitX=0.75;exitY=0;exitDx=0;exitDy=0;exitPerimeter=0;entryX=0.75;entryY=1;entryDx=0;entryDy=0;entryPerimeter=0;" parent="1" source="mVGBNtJ_EDpIW_7o-upL-18" target="mVGBNtJ_EDpIW_7o-upL-14" edge="1">
          <mxGeometry relative="1" as="geometry" />
        </mxCell>
        <mxCell id="mVGBNtJ_EDpIW_7o-upL-21" value="&lt;div&gt;&lt;br&gt;&lt;/div&gt;" style="text;html=1;align=center;verticalAlign=middle;resizable=0;points=[];autosize=1;strokeColor=none;fillColor=none;" parent="1" vertex="1">
          <mxGeometry x="459" y="533" width="20" height="30" as="geometry" />
        </mxCell>
        <mxCell id="mVGBNtJ_EDpIW_7o-upL-23" style="edgeStyle=orthogonalEdgeStyle;rounded=0;orthogonalLoop=1;jettySize=auto;html=1;" parent="1" source="mVGBNtJ_EDpIW_7o-upL-22" target="mVGBNtJ_EDpIW_7o-upL-14" edge="1">
          <mxGeometry relative="1" as="geometry" />
        </mxCell>
        <mxCell id="mVGBNtJ_EDpIW_7o-upL-22" value="data-process-worker" style="outlineConnect=0;dashed=0;verticalLabelPosition=bottom;verticalAlign=top;align=center;html=1;shape=mxgraph.aws3.worker;fillColor=#D9A741;gradientColor=none;" parent="1" vertex="1">
          <mxGeometry x="584.5" y="344.5" width="60" height="63" as="geometry" />
        </mxCell>
        <mxCell id="mVGBNtJ_EDpIW_7o-upL-25" value="&lt;span style=&quot;background-color: rgb(251, 251, 251);&quot;&gt;data-process-cache&lt;/span&gt;" style="image;sketch=0;aspect=fixed;html=1;points=[];align=center;fontSize=12;image=img/lib/mscae/Cache_Redis_Product.svg;" parent="1" vertex="1">
          <mxGeometry x="520" y="240" width="50" height="42" as="geometry" />
        </mxCell>
        <mxCell id="mVGBNtJ_EDpIW_7o-upL-27" style="edgeStyle=orthogonalEdgeStyle;rounded=0;orthogonalLoop=1;jettySize=auto;html=1;entryX=1.02;entryY=0.476;entryDx=0;entryDy=0;entryPerimeter=0;exitX=0.5;exitY=0;exitDx=0;exitDy=0;exitPerimeter=0;" parent="1" source="mVGBNtJ_EDpIW_7o-upL-22" target="mVGBNtJ_EDpIW_7o-upL-25" edge="1">
          <mxGeometry relative="1" as="geometry" />
        </mxCell>
        <mxCell id="mVGBNtJ_EDpIW_7o-upL-28" value="&lt;span style=&quot;background-color: rgb(251, 251, 251);&quot;&gt;data-process-database&lt;/span&gt;" style="image;aspect=fixed;html=1;points=[];align=center;fontSize=12;image=img/lib/azure2/databases/Azure_Database_PostgreSQL_Server.svg;" parent="1" vertex="1">
          <mxGeometry x="670" y="228" width="48" height="64" as="geometry" />
        </mxCell>
        <mxCell id="mVGBNtJ_EDpIW_7o-upL-29" style="edgeStyle=orthogonalEdgeStyle;rounded=0;orthogonalLoop=1;jettySize=auto;html=1;exitX=0.5;exitY=0;exitDx=0;exitDy=0;exitPerimeter=0;entryX=-0.01;entryY=0.5;entryDx=0;entryDy=0;entryPerimeter=0;" parent="1" source="mVGBNtJ_EDpIW_7o-upL-22" target="mVGBNtJ_EDpIW_7o-upL-28" edge="1">
          <mxGeometry relative="1" as="geometry" />
        </mxCell>
        <mxCell id="mVGBNtJ_EDpIW_7o-upL-31" value="data-process-topic" style="sketch=0;points=[[0,0,0],[0.25,0,0],[0.5,0,0],[0.75,0,0],[1,0,0],[0,1,0],[0.25,1,0],[0.5,1,0],[0.75,1,0],[1,1,0],[0,0.25,0],[0,0.5,0],[0,0.75,0],[1,0.25,0],[1,0.5,0],[1,0.75,0]];outlineConnect=0;fontColor=#232F3E;fillColor=#E7157B;strokeColor=#ffffff;dashed=0;verticalLabelPosition=bottom;verticalAlign=top;align=center;html=1;fontSize=12;fontStyle=0;aspect=fixed;shape=mxgraph.aws4.resourceIcon;resIcon=mxgraph.aws4.sns;" parent="1" vertex="1">
          <mxGeometry x="730" y="337" width="78" height="78" as="geometry" />
        </mxCell>
        <mxCell id="mVGBNtJ_EDpIW_7o-upL-32" style="edgeStyle=orthogonalEdgeStyle;rounded=0;orthogonalLoop=1;jettySize=auto;html=1;entryX=0;entryY=0.5;entryDx=0;entryDy=0;entryPerimeter=0;" parent="1" source="mVGBNtJ_EDpIW_7o-upL-22" target="mVGBNtJ_EDpIW_7o-upL-31" edge="1">
          <mxGeometry relative="1" as="geometry" />
        </mxCell>
        <mxCell id="mVGBNtJ_EDpIW_7o-upL-33" value="process-email" style="sketch=0;points=[[0,0,0],[0.25,0,0],[0.5,0,0],[0.75,0,0],[1,0,0],[0,1,0],[0.25,1,0],[0.5,1,0],[0.75,1,0],[1,1,0],[0,0.25,0],[0,0.5,0],[0,0.75,0],[1,0.25,0],[1,0.5,0],[1,0.75,0]];outlineConnect=0;fontColor=#232F3E;fillColor=#E7157B;strokeColor=#ffffff;dashed=0;verticalLabelPosition=bottom;verticalAlign=top;align=center;html=1;fontSize=12;fontStyle=0;aspect=fixed;shape=mxgraph.aws4.resourceIcon;resIcon=mxgraph.aws4.sqs;" parent="1" vertex="1">
          <mxGeometry x="880" y="230" width="78" height="78" as="geometry" />
        </mxCell>
        <mxCell id="mVGBNtJ_EDpIW_7o-upL-34" style="edgeStyle=orthogonalEdgeStyle;rounded=0;orthogonalLoop=1;jettySize=auto;html=1;entryX=0;entryY=0.5;entryDx=0;entryDy=0;entryPerimeter=0;" parent="1" source="mVGBNtJ_EDpIW_7o-upL-31" target="mVGBNtJ_EDpIW_7o-upL-33" edge="1">
          <mxGeometry relative="1" as="geometry" />
        </mxCell>
        <mxCell id="mVGBNtJ_EDpIW_7o-upL-35" value="process-whatsapp" style="sketch=0;points=[[0,0,0],[0.25,0,0],[0.5,0,0],[0.75,0,0],[1,0,0],[0,1,0],[0.25,1,0],[0.5,1,0],[0.75,1,0],[1,1,0],[0,0.25,0],[0,0.5,0],[0,0.75,0],[1,0.25,0],[1,0.5,0],[1,0.75,0]];outlineConnect=0;fontColor=#232F3E;fillColor=#B5739D;strokeColor=#ffffff;dashed=0;verticalLabelPosition=bottom;verticalAlign=top;align=center;html=1;fontSize=12;fontStyle=0;aspect=fixed;shape=mxgraph.aws4.resourceIcon;resIcon=mxgraph.aws4.sqs;" parent="1" vertex="1">
          <mxGeometry x="880" y="337" width="78" height="78" as="geometry" />
        </mxCell>
        <mxCell id="mVGBNtJ_EDpIW_7o-upL-36" style="edgeStyle=orthogonalEdgeStyle;rounded=0;orthogonalLoop=1;jettySize=auto;html=1;entryX=0;entryY=0.5;entryDx=0;entryDy=0;entryPerimeter=0;dashed=1;" parent="1" source="mVGBNtJ_EDpIW_7o-upL-31" target="mVGBNtJ_EDpIW_7o-upL-35" edge="1">
          <mxGeometry relative="1" as="geometry" />
        </mxCell>
        <mxCell id="mVGBNtJ_EDpIW_7o-upL-37" value="process-&lt;i&gt;n&lt;/i&gt;" style="sketch=0;points=[[0,0,0],[0.25,0,0],[0.5,0,0],[0.75,0,0],[1,0,0],[0,1,0],[0.25,1,0],[0.5,1,0],[0.75,1,0],[1,1,0],[0,0.25,0],[0,0.5,0],[0,0.75,0],[1,0.25,0],[1,0.5,0],[1,0.75,0]];outlineConnect=0;fontColor=#232F3E;fillColor=#B5739D;strokeColor=#ffffff;dashed=0;verticalLabelPosition=bottom;verticalAlign=top;align=center;html=1;fontSize=12;fontStyle=0;aspect=fixed;shape=mxgraph.aws4.resourceIcon;resIcon=mxgraph.aws4.sqs;" parent="1" vertex="1">
          <mxGeometry x="880" y="452" width="78" height="78" as="geometry" />
        </mxCell>
        <mxCell id="mVGBNtJ_EDpIW_7o-upL-38" style="edgeStyle=orthogonalEdgeStyle;rounded=0;orthogonalLoop=1;jettySize=auto;html=1;entryX=0;entryY=0.5;entryDx=0;entryDy=0;entryPerimeter=0;dashed=1;" parent="1" source="mVGBNtJ_EDpIW_7o-upL-31" target="mVGBNtJ_EDpIW_7o-upL-37" edge="1">
          <mxGeometry relative="1" as="geometry" />
        </mxCell>
        <mxCell id="mVGBNtJ_EDpIW_7o-upL-39" value="send-service&lt;div&gt;(worker)&lt;/div&gt;" style="whiteSpace=wrap;html=1;aspect=fixed;" parent="1" vertex="1">
          <mxGeometry x="1020" y="229" width="80" height="80" as="geometry" />
        </mxCell>
        <mxCell id="mVGBNtJ_EDpIW_7o-upL-40" style="edgeStyle=orthogonalEdgeStyle;rounded=0;orthogonalLoop=1;jettySize=auto;html=1;entryX=1;entryY=0.5;entryDx=0;entryDy=0;entryPerimeter=0;" parent="1" source="mVGBNtJ_EDpIW_7o-upL-39" target="mVGBNtJ_EDpIW_7o-upL-33" edge="1">
          <mxGeometry relative="1" as="geometry" />
        </mxCell>
        <mxCell id="mVGBNtJ_EDpIW_7o-upL-41" value="whatsapp-service&lt;div&gt;(worker)&lt;/div&gt;" style="whiteSpace=wrap;html=1;aspect=fixed;fillColor=#f5f5f5;fontColor=#333333;strokeColor=#666666;dashed=1;" parent="1" vertex="1">
          <mxGeometry x="1020" y="336" width="80" height="80" as="geometry" />
        </mxCell>
        <mxCell id="mVGBNtJ_EDpIW_7o-upL-42" style="edgeStyle=orthogonalEdgeStyle;rounded=0;orthogonalLoop=1;jettySize=auto;html=1;entryX=1;entryY=0.5;entryDx=0;entryDy=0;entryPerimeter=0;dashed=1;" parent="1" source="mVGBNtJ_EDpIW_7o-upL-41" target="mVGBNtJ_EDpIW_7o-upL-35" edge="1">
          <mxGeometry relative="1" as="geometry" />
        </mxCell>
        <mxCell id="mVGBNtJ_EDpIW_7o-upL-45" style="edgeStyle=orthogonalEdgeStyle;rounded=0;orthogonalLoop=1;jettySize=auto;html=1;dashed=1;" parent="1" source="mVGBNtJ_EDpIW_7o-upL-43" target="mVGBNtJ_EDpIW_7o-upL-37" edge="1">
          <mxGeometry relative="1" as="geometry" />
        </mxCell>
        <mxCell id="mVGBNtJ_EDpIW_7o-upL-43" value="&lt;i&gt;n&lt;/i&gt;-service&lt;br&gt;(worker)" style="whiteSpace=wrap;html=1;aspect=fixed;fillColor=#f5f5f5;fontColor=#333333;strokeColor=#666666;dashed=1;" parent="1" vertex="1">
          <mxGeometry x="1020" y="451" width="80" height="80" as="geometry" />
        </mxCell>
        <mxCell id="mVGBNtJ_EDpIW_7o-upL-47" value="entry-point" style="text;html=1;align=center;verticalAlign=middle;resizable=0;points=[];autosize=1;strokeColor=none;fillColor=none;" parent="1" vertex="1">
          <mxGeometry x="245" y="309" width="80" height="30" as="geometry" />
        </mxCell>
        <mxCell id="mVGBNtJ_EDpIW_7o-upL-50" value="processor" style="text;html=1;align=center;verticalAlign=middle;resizable=0;points=[];autosize=1;strokeColor=none;fillColor=none;" parent="1" vertex="1">
          <mxGeometry x="399" y="220" width="80" height="30" as="geometry" />
        </mxCell>
        <mxCell id="mVGBNtJ_EDpIW_7o-upL-56" style="edgeStyle=orthogonalEdgeStyle;rounded=0;orthogonalLoop=1;jettySize=auto;html=1;entryX=0.5;entryY=0;entryDx=0;entryDy=0;" parent="1" source="mVGBNtJ_EDpIW_7o-upL-55" target="mVGBNtJ_EDpIW_7o-upL-49" edge="1">
          <mxGeometry relative="1" as="geometry" />
        </mxCell>
        <mxCell id="mVGBNtJ_EDpIW_7o-upL-57" value="GET /metrics" style="text;html=1;align=center;verticalAlign=middle;resizable=0;points=[];autosize=1;strokeColor=none;fillColor=none;" parent="1" vertex="1">
          <mxGeometry x="620" y="177" width="90" height="30" as="geometry" />
        </mxCell>
        <mxCell id="mVGBNtJ_EDpIW_7o-upL-60" value="GET /metrics" style="text;html=1;align=center;verticalAlign=middle;resizable=0;points=[];autosize=1;strokeColor=none;fillColor=none;" parent="1" vertex="1">
          <mxGeometry x="990" y="177" width="90" height="30" as="geometry" />
        </mxCell>
        <mxCell id="mVGBNtJ_EDpIW_7o-upL-65" value="" style="group" parent="1" vertex="1" connectable="0">
          <mxGeometry x="475" y="50" width="280" height="120" as="geometry" />
        </mxCell>
        <mxCell id="mVGBNtJ_EDpIW_7o-upL-55" value="" style="rounded=0;whiteSpace=wrap;html=1;fillColor=#d5e8d4;strokeColor=#82b366;" parent="mVGBNtJ_EDpIW_7o-upL-65" vertex="1">
          <mxGeometry width="280" height="120" as="geometry" />
        </mxCell>
        <mxCell id="mVGBNtJ_EDpIW_7o-upL-64" style="edgeStyle=orthogonalEdgeStyle;rounded=0;orthogonalLoop=1;jettySize=auto;html=1;entryX=1;entryY=0.5;entryDx=0;entryDy=0;" parent="mVGBNtJ_EDpIW_7o-upL-65" source="mVGBNtJ_EDpIW_7o-upL-58" target="mVGBNtJ_EDpIW_7o-upL-63" edge="1">
          <mxGeometry relative="1" as="geometry" />
        </mxCell>
        <mxCell id="mVGBNtJ_EDpIW_7o-upL-58" value="dashboards (graphana)" style="image;aspect=fixed;html=1;points=[];align=center;fontSize=12;image=img/lib/azure2/other/Grafana.svg;" parent="mVGBNtJ_EDpIW_7o-upL-65" vertex="1">
          <mxGeometry x="190" y="30" width="68" height="52.800000000000004" as="geometry" />
        </mxCell>
        <mxCell id="mVGBNtJ_EDpIW_7o-upL-63" value="metrics-server (prometheus)" style="shape=image;verticalLabelPosition=bottom;labelBackgroundColor=default;verticalAlign=top;aspect=fixed;imageAspect=0;image=https://static-00.iconduck.com/assets.00/prometheus-icon-511x512-1vmxbcxr.png;" parent="mVGBNtJ_EDpIW_7o-upL-65" vertex="1">
          <mxGeometry x="50.00000000000006" y="16.400000000000006" width="79.85" height="80" as="geometry" />
        </mxCell>
        <mxCell id="Tl4g3AKPbkcamdoVd6ub-1" value="metrics" style="text;html=1;align=center;verticalAlign=middle;resizable=0;points=[];autosize=1;strokeColor=none;fillColor=none;" vertex="1" parent="mVGBNtJ_EDpIW_7o-upL-65">
          <mxGeometry width="60" height="30" as="geometry" />
        </mxCell>
        <mxCell id="mVGBNtJ_EDpIW_7o-upL-66" style="edgeStyle=orthogonalEdgeStyle;rounded=0;orthogonalLoop=1;jettySize=auto;html=1;" parent="1" source="mVGBNtJ_EDpIW_7o-upL-55" target="mVGBNtJ_EDpIW_7o-upL-46" edge="1">
          <mxGeometry relative="1" as="geometry" />
        </mxCell>
        <mxCell id="mVGBNtJ_EDpIW_7o-upL-67" value="GET /metrics" style="text;html=1;align=center;verticalAlign=middle;resizable=0;points=[];autosize=1;strokeColor=none;fillColor=none;" parent="1" vertex="1">
          <mxGeometry x="309" y="254" width="90" height="30" as="geometry" />
        </mxCell>
      </root>
    </mxGraphModel>
  </diagram>
</mxfile>
